<svg xmlns="http://www.w3.org/2000/svg" fill="none" viewBox="0 0 15 15" height="15" width="15">
<path fill="#2F1948" d="M14.3328 0.630559C14.3239 0.477657 14.2592 0.333357 14.1508 0.225055C14.0425 0.116752 13.8982 0.0519886 13.7453 0.0430594C7.79769 -0.306159 3.03363 1.48447 1.00238 4.84384C0.298285 5.99299 -0.048673 7.32536 0.00550086 8.67197C0.0408621 9.53309 0.216067 10.3827 0.524251 11.1876C0.54236 11.2371 0.57271 11.2813 0.612475 11.3159C0.652241 11.3506 0.700127 11.3746 0.751674 11.3857C0.803222 11.3969 0.856753 11.3948 0.907282 11.3797C0.957811 11.3646 1.00369 11.3369 1.04066 11.2993L7.68128 4.55712C7.73935 4.49905 7.80829 4.45299 7.88416 4.42156C7.96003 4.39014 8.04135 4.37396 8.12347 4.37396C8.20559 4.37396 8.28691 4.39014 8.36278 4.42156C8.43865 4.45299 8.50759 4.49905 8.56566 4.55712C8.62372 4.61519 8.66979 4.68413 8.70121 4.76C8.73264 4.83587 8.74882 4.91719 8.74882 4.99931C8.74882 5.08143 8.73264 5.16275 8.70121 5.23862C8.66979 5.31449 8.62372 5.38343 8.56566 5.4415L1.30863 12.8079L0.200032 13.9165C0.0847395 14.0287 0.0159088 14.1803 0.00722373 14.3409C-0.00146129 14.5016 0.0506356 14.6597 0.153157 14.7837C0.209303 14.8487 0.27825 14.9014 0.355693 14.9386C0.433136 14.9758 0.517413 14.9966 0.603261 14.9998C0.689109 15.0029 0.774685 14.9884 0.854646 14.957C0.934608 14.9256 1.00724 14.878 1.068 14.8173L2.37972 13.5056C3.48441 14.0399 4.59925 14.3313 5.70472 14.3704C5.7917 14.3735 5.87842 14.3751 5.96487 14.3751C7.22378 14.3783 8.45881 14.0316 9.53206 13.3735C12.8914 11.3423 14.6828 6.579 14.3328 0.630559Z"></path>
</svg>
